<?xml version="1.0" encoding="UTF-8" standalone="no"?>
<!DOCTYPE svg PUBLIC "-//W3C//DTD SVG 1.1//EN"
 "http://www.w3.org/Graphics/SVG/1.1/DTD/svg11.dtd">
<!-- Generated by graphviz version 2.43.0 (0)
 -->
<!-- Title: %3 Pages: 1 -->
<svg width="2496pt" height="620pt"
 viewBox="0.00 0.00 2496.36 620.00" xmlns="http://www.w3.org/2000/svg" xmlns:xlink="http://www.w3.org/1999/xlink">
<g id="graph0" class="graph" transform="scale(1 1) rotate(0) translate(4 616)">
<title>%3</title>
<polygon fill="white" stroke="transparent" points="-4,4 -4,-616 2492.36,-616 2492.36,4 -4,4"/>
<!-- 0 -->
<g id="node1" class="node">
<title>0</title>
<ellipse fill="none" stroke="black" cx="597.59" cy="-522" rx="66.89" ry="18"/>
<text text-anchor="middle" x="597.59" y="-518.3" font-family="Times,serif" font-size="14.00">SelectionOp</text>
</g>
<!-- 10 -->
<g id="node16" class="node">
<title>10</title>
<ellipse fill="none" stroke="black" cx="777.59" cy="-450" rx="50.89" ry="18"/>
<text text-anchor="middle" x="777.59" y="-446.3" font-family="Times,serif" font-size="14.00">Groupby</text>
</g>
<!-- 0&#45;&gt;10 -->
<g id="edge18" class="edge">
<title>0&#45;&gt;10</title>
<path fill="none" stroke="black" d="M634.01,-506.83C663.21,-495.48 704.24,-479.52 734.97,-467.58"/>
<polygon fill="black" stroke="black" points="736.5,-470.73 744.55,-463.85 733.96,-464.21 736.5,-470.73"/>
</g>
<!-- 0_selector -->
<g id="node2" class="node">
<title>0_selector</title>
<ellipse fill="none" stroke="black" cx="541.59" cy="-594" rx="79.09" ry="18"/>
<text text-anchor="middle" x="541.59" y="-590.3" font-family="Times,serif" font-size="14.00">[&#39;customer_id&#39;]</text>
</g>
<!-- 0_selector&#45;&gt;0 -->
<g id="edge1" class="edge">
<title>0_selector&#45;&gt;0</title>
<path fill="none" stroke="black" d="M555.14,-576.05C561.95,-567.54 570.33,-557.07 577.84,-547.68"/>
<polygon fill="black" stroke="black" points="580.64,-549.78 584.16,-539.79 575.18,-545.41 580.64,-549.78"/>
</g>
<!-- 1 -->
<g id="node3" class="node">
<title>1</title>
<ellipse fill="none" stroke="black" cx="1570.59" cy="-90" rx="50.89" ry="18"/>
<text text-anchor="middle" x="1570.59" y="-86.3" font-family="Times,serif" font-size="14.00">ListSlice</text>
</g>
<!-- 16 -->
<g id="node33" class="node">
<title>16</title>
<ellipse fill="none" stroke="black" cx="1570.59" cy="-18" rx="225.56" ry="18"/>
<text text-anchor="middle" x="1570.59" y="-14.3" font-family="Times,serif" font-size="14.00">output cols=[article_id_list, t_dat_list, t_dat...]</text>
</g>
<!-- 1&#45;&gt;16 -->
<g id="edge33" class="edge">
<title>1&#45;&gt;16</title>
<path fill="none" stroke="black" d="M1570.59,-71.7C1570.59,-63.98 1570.59,-54.71 1570.59,-46.11"/>
<polygon fill="black" stroke="black" points="1574.09,-46.1 1570.59,-36.1 1567.09,-46.1 1574.09,-46.1"/>
</g>
<!-- 15 -->
<g id="node4" class="node">
<title>15</title>
<ellipse fill="none" stroke="black" cx="1348.59" cy="-162" rx="50.09" ry="18"/>
<text text-anchor="middle" x="1348.59" y="-158.3" font-family="Times,serif" font-size="14.00">AddTags</text>
</g>
<!-- 15&#45;&gt;1 -->
<g id="edge2" class="edge">
<title>15&#45;&gt;1</title>
<path fill="none" stroke="black" d="M1385.25,-149.44C1423.33,-137.43 1483.01,-118.61 1524.32,-105.59"/>
<polygon fill="black" stroke="black" points="1525.39,-108.92 1533.87,-102.58 1523.29,-102.25 1525.39,-108.92"/>
</g>
<!-- 1_selector -->
<g id="node5" class="node">
<title>1_selector</title>
<ellipse fill="none" stroke="black" cx="1792.59" cy="-162" rx="376.13" ry="18"/>
<text text-anchor="middle" x="1792.59" y="-158.3" font-family="Times,serif" font-size="14.00">[&#39;article_id_list&#39;, &#39;t_dat_list&#39;, &#39;t_dat&#39;, &#39;article_id_count&#39;, &#39;customer_id&#39;, &#39;article_id&#39;]</text>
</g>
<!-- 1_selector&#45;&gt;1 -->
<g id="edge3" class="edge">
<title>1_selector&#45;&gt;1</title>
<path fill="none" stroke="black" d="M1739.13,-144.14C1701.84,-132.39 1652.57,-116.85 1616.94,-105.61"/>
<polygon fill="black" stroke="black" points="1617.86,-102.24 1607.27,-102.57 1615.76,-108.91 1617.86,-102.24"/>
</g>
<!-- 2 -->
<g id="node6" class="node">
<title>2</title>
<ellipse fill="none" stroke="black" cx="350.59" cy="-306" rx="59.59" ry="18"/>
<text text-anchor="middle" x="350.59" y="-302.3" font-family="Times,serif" font-size="14.00">Categorify</text>
</g>
<!-- 12 -->
<g id="node26" class="node">
<title>12</title>
<ellipse fill="none" stroke="black" cx="1138.59" cy="-234" rx="27" ry="18"/>
<text text-anchor="middle" x="1138.59" y="-230.3" font-family="Times,serif" font-size="14.00">+</text>
</g>
<!-- 2&#45;&gt;12 -->
<g id="edge22" class="edge">
<title>2&#45;&gt;12</title>
<path fill="none" stroke="black" d="M407.26,-299.97C559.68,-286.43 975.37,-249.5 1101.69,-238.28"/>
<polygon fill="black" stroke="black" points="1102.33,-241.73 1111.99,-237.36 1101.72,-234.76 1102.33,-241.73"/>
</g>
<!-- 11 -->
<g id="node7" class="node">
<title>11</title>
<ellipse fill="none" stroke="black" cx="350.59" cy="-378" rx="66.89" ry="18"/>
<text text-anchor="middle" x="350.59" y="-374.3" font-family="Times,serif" font-size="14.00">SelectionOp</text>
</g>
<!-- 11&#45;&gt;2 -->
<g id="edge4" class="edge">
<title>11&#45;&gt;2</title>
<path fill="none" stroke="black" d="M350.59,-359.7C350.59,-351.98 350.59,-342.71 350.59,-334.11"/>
<polygon fill="black" stroke="black" points="354.09,-334.1 350.59,-324.1 347.09,-334.1 354.09,-334.1"/>
</g>
<!-- 2_selector -->
<g id="node8" class="node">
<title>2_selector</title>
<ellipse fill="none" stroke="black" cx="132.59" cy="-378" rx="132.68" ry="18"/>
<text text-anchor="middle" x="132.59" y="-374.3" font-family="Times,serif" font-size="14.00">[&#39;customer_id&#39;, &#39;article_id&#39;]</text>
</g>
<!-- 2_selector&#45;&gt;2 -->
<g id="edge5" class="edge">
<title>2_selector&#45;&gt;2</title>
<path fill="none" stroke="black" d="M181.78,-361.2C217.6,-349.7 265.89,-334.2 301.64,-322.72"/>
<polygon fill="black" stroke="black" points="302.92,-325.98 311.37,-319.59 300.78,-319.32 302.92,-325.98"/>
</g>
<!-- 3 -->
<g id="node9" class="node">
<title>3</title>
<ellipse fill="none" stroke="black" cx="1027.59" cy="-378" rx="66.89" ry="18"/>
<text text-anchor="middle" x="1027.59" y="-374.3" font-family="Times,serif" font-size="14.00">SelectionOp</text>
</g>
<!-- 8 -->
<g id="node20" class="node">
<title>8</title>
<ellipse fill="none" stroke="black" cx="1027.59" cy="-306" rx="59.59" ry="18"/>
<text text-anchor="middle" x="1027.59" y="-302.3" font-family="Times,serif" font-size="14.00">Categorify</text>
</g>
<!-- 3&#45;&gt;8 -->
<g id="edge13" class="edge">
<title>3&#45;&gt;8</title>
<path fill="none" stroke="black" d="M1027.59,-359.7C1027.59,-351.98 1027.59,-342.71 1027.59,-334.11"/>
<polygon fill="black" stroke="black" points="1031.09,-334.1 1027.59,-324.1 1024.09,-334.1 1031.09,-334.1"/>
</g>
<!-- 3_selector -->
<g id="node10" class="node">
<title>3_selector</title>
<ellipse fill="none" stroke="black" cx="1027.59" cy="-450" rx="132.68" ry="18"/>
<text text-anchor="middle" x="1027.59" y="-446.3" font-family="Times,serif" font-size="14.00">[&#39;customer_id&#39;, &#39;article_id&#39;]</text>
</g>
<!-- 3_selector&#45;&gt;3 -->
<g id="edge6" class="edge">
<title>3_selector&#45;&gt;3</title>
<path fill="none" stroke="black" d="M1027.59,-431.7C1027.59,-423.98 1027.59,-414.71 1027.59,-406.11"/>
<polygon fill="black" stroke="black" points="1031.09,-406.1 1027.59,-396.1 1024.09,-406.1 1031.09,-406.1"/>
</g>
<!-- 4 -->
<g id="node11" class="node">
<title>4</title>
<ellipse fill="none" stroke="black" cx="2220.59" cy="-450" rx="66.89" ry="18"/>
<text text-anchor="middle" x="2220.59" y="-446.3" font-family="Times,serif" font-size="14.00">SelectionOp</text>
</g>
<!-- 9 -->
<g id="node22" class="node">
<title>9</title>
<ellipse fill="none" stroke="black" cx="2155.59" cy="-378" rx="332.54" ry="18"/>
<text text-anchor="middle" x="2155.59" y="-374.3" font-family="Times,serif" font-size="14.00">nvt.ops.LambdaOp(lambda col: get_lib().to_datetime(col).dt.weekday)</text>
</g>
<!-- 4&#45;&gt;9 -->
<g id="edge15" class="edge">
<title>4&#45;&gt;9</title>
<path fill="none" stroke="black" d="M2205.18,-432.41C2197.32,-423.95 2187.6,-413.47 2178.85,-404.05"/>
<polygon fill="black" stroke="black" points="2181.16,-401.39 2171.79,-396.45 2176.03,-406.16 2181.16,-401.39"/>
</g>
<!-- 4_selector -->
<g id="node12" class="node">
<title>4_selector</title>
<ellipse fill="none" stroke="black" cx="2220.59" cy="-522" rx="46.29" ry="18"/>
<text text-anchor="middle" x="2220.59" y="-518.3" font-family="Times,serif" font-size="14.00">[&#39;t_dat&#39;]</text>
</g>
<!-- 4_selector&#45;&gt;4 -->
<g id="edge7" class="edge">
<title>4_selector&#45;&gt;4</title>
<path fill="none" stroke="black" d="M2220.59,-503.7C2220.59,-495.98 2220.59,-486.71 2220.59,-478.11"/>
<polygon fill="black" stroke="black" points="2224.09,-478.1 2220.59,-468.1 2217.09,-478.1 2224.09,-478.1"/>
</g>
<!-- 5 -->
<g id="node13" class="node">
<title>5</title>
<ellipse fill="none" stroke="black" cx="777.59" cy="-522" rx="66.89" ry="18"/>
<text text-anchor="middle" x="777.59" y="-518.3" font-family="Times,serif" font-size="14.00">SelectionOp</text>
</g>
<!-- 5&#45;&gt;10 -->
<g id="edge17" class="edge">
<title>5&#45;&gt;10</title>
<path fill="none" stroke="black" d="M777.59,-503.7C777.59,-495.98 777.59,-486.71 777.59,-478.11"/>
<polygon fill="black" stroke="black" points="781.09,-478.1 777.59,-468.1 774.09,-478.1 781.09,-478.1"/>
</g>
<!-- 5_selector -->
<g id="node14" class="node">
<title>5_selector</title>
<ellipse fill="none" stroke="black" cx="805.59" cy="-594" rx="167.07" ry="18"/>
<text text-anchor="middle" x="805.59" y="-590.3" font-family="Times,serif" font-size="14.00">[&#39;customer_id&#39;, &#39;article_id&#39;, &#39;t_dat&#39;]</text>
</g>
<!-- 5_selector&#45;&gt;5 -->
<g id="edge8" class="edge">
<title>5_selector&#45;&gt;5</title>
<path fill="none" stroke="black" d="M798.67,-575.7C795.51,-567.81 791.71,-558.3 788.21,-549.55"/>
<polygon fill="black" stroke="black" points="791.39,-548.09 784.43,-540.1 784.89,-550.69 791.39,-548.09"/>
</g>
<!-- 6 -->
<g id="node15" class="node">
<title>6</title>
<ellipse fill="none" stroke="black" cx="1550.59" cy="-378" rx="144.07" ry="18"/>
<text text-anchor="middle" x="1550.59" y="-374.3" font-family="Times,serif" font-size="14.00">[(&#39;article_id_list&#39;, &#39;t_dat_list&#39;)]</text>
</g>
<!-- 14 -->
<g id="node27" class="node">
<title>14</title>
<ellipse fill="none" stroke="black" cx="1250.59" cy="-306" rx="50.09" ry="18"/>
<text text-anchor="middle" x="1250.59" y="-302.3" font-family="Times,serif" font-size="14.00">AddTags</text>
</g>
<!-- 6&#45;&gt;14 -->
<g id="edge29" class="edge">
<title>6&#45;&gt;14</title>
<path fill="none" stroke="black" d="M1485.86,-361.9C1430.63,-349.01 1352.31,-330.74 1301.48,-318.87"/>
<polygon fill="black" stroke="black" points="1302.23,-315.46 1291.69,-316.59 1300.64,-322.27 1302.23,-315.46"/>
</g>
<!-- 10&#45;&gt;6 -->
<g id="edge9" class="edge">
<title>10&#45;&gt;6</title>
<path fill="none" stroke="black" d="M821.87,-441.15C841.36,-437.92 864.56,-434.39 885.59,-432 1112.25,-406.24 1170.4,-416.6 1397.59,-396 1410.97,-394.79 1425.01,-393.39 1438.91,-391.94"/>
<polygon fill="black" stroke="black" points="1439.43,-395.4 1449.01,-390.87 1438.69,-388.44 1439.43,-395.4"/>
</g>
<!-- 7 -->
<g id="node18" class="node">
<title>7</title>
<ellipse fill="none" stroke="black" cx="563.59" cy="-378" rx="95.58" ry="18"/>
<text text-anchor="middle" x="563.59" y="-374.3" font-family="Times,serif" font-size="14.00">[&#39;article_id_count&#39;]</text>
</g>
<!-- 10&#45;&gt;7 -->
<g id="edge11" class="edge">
<title>10&#45;&gt;7</title>
<path fill="none" stroke="black" d="M741.29,-437.13C707.65,-426.12 657.13,-409.6 618.55,-396.98"/>
<polygon fill="black" stroke="black" points="619.61,-393.64 609.02,-393.86 617.43,-400.3 619.61,-393.64"/>
</g>
<!-- 6_selector -->
<g id="node17" class="node">
<title>6_selector</title>
<ellipse fill="none" stroke="black" cx="1550.59" cy="-450" rx="137.58" ry="18"/>
<text text-anchor="middle" x="1550.59" y="-446.3" font-family="Times,serif" font-size="14.00">[&#39;article_id_list&#39;, &#39;t_dat_list&#39;]</text>
</g>
<!-- 6_selector&#45;&gt;6 -->
<g id="edge10" class="edge">
<title>6_selector&#45;&gt;6</title>
<path fill="none" stroke="black" d="M1550.59,-431.7C1550.59,-423.98 1550.59,-414.71 1550.59,-406.11"/>
<polygon fill="black" stroke="black" points="1554.09,-406.1 1550.59,-396.1 1547.09,-406.1 1554.09,-406.1"/>
</g>
<!-- 7&#45;&gt;12 -->
<g id="edge24" class="edge">
<title>7&#45;&gt;12</title>
<path fill="none" stroke="black" d="M618.98,-363.32C736.44,-334.31 1007.59,-267.35 1103.89,-243.57"/>
<polygon fill="black" stroke="black" points="1104.83,-246.94 1113.7,-241.15 1103.15,-240.15 1104.83,-246.94"/>
</g>
<!-- 7_selector -->
<g id="node19" class="node">
<title>7_selector</title>
<ellipse fill="none" stroke="black" cx="579.59" cy="-450" rx="95.58" ry="18"/>
<text text-anchor="middle" x="579.59" y="-446.3" font-family="Times,serif" font-size="14.00">[&#39;article_id_count&#39;]</text>
</g>
<!-- 7_selector&#45;&gt;7 -->
<g id="edge12" class="edge">
<title>7_selector&#45;&gt;7</title>
<path fill="none" stroke="black" d="M575.63,-431.7C573.87,-423.98 571.75,-414.71 569.79,-406.11"/>
<polygon fill="black" stroke="black" points="573.14,-405.07 567.5,-396.1 566.31,-406.63 573.14,-405.07"/>
</g>
<!-- 8&#45;&gt;12 -->
<g id="edge25" class="edge">
<title>8&#45;&gt;12</title>
<path fill="none" stroke="black" d="M1052.22,-289.46C1069.52,-278.56 1092.68,-263.95 1110.66,-252.61"/>
<polygon fill="black" stroke="black" points="1112.94,-255.31 1119.53,-247.02 1109.21,-249.39 1112.94,-255.31"/>
</g>
<!-- 8_selector -->
<g id="node21" class="node">
<title>8_selector</title>
<ellipse fill="none" stroke="black" cx="809.59" cy="-378" rx="132.68" ry="18"/>
<text text-anchor="middle" x="809.59" y="-374.3" font-family="Times,serif" font-size="14.00">[&#39;customer_id&#39;, &#39;article_id&#39;]</text>
</g>
<!-- 8_selector&#45;&gt;8 -->
<g id="edge14" class="edge">
<title>8_selector&#45;&gt;8</title>
<path fill="none" stroke="black" d="M858.78,-361.2C894.6,-349.7 942.89,-334.2 978.64,-322.72"/>
<polygon fill="black" stroke="black" points="979.92,-325.98 988.37,-319.59 977.78,-319.32 979.92,-325.98"/>
</g>
<!-- 13 -->
<g id="node28" class="node">
<title>13</title>
<ellipse fill="none" stroke="black" cx="1563.59" cy="-306" rx="50.09" ry="18"/>
<text text-anchor="middle" x="1563.59" y="-302.3" font-family="Times,serif" font-size="14.00">AddTags</text>
</g>
<!-- 9&#45;&gt;13 -->
<g id="edge27" class="edge">
<title>9&#45;&gt;13</title>
<path fill="none" stroke="black" d="M1938.08,-364.34C1840.95,-356.39 1725.44,-343.76 1622.59,-324 1618.41,-323.2 1614.1,-322.23 1609.79,-321.17"/>
<polygon fill="black" stroke="black" points="1610.41,-317.71 1599.85,-318.57 1608.63,-324.49 1610.41,-317.71"/>
</g>
<!-- 9_selector -->
<g id="node23" class="node">
<title>9_selector</title>
<ellipse fill="none" stroke="black" cx="2089.59" cy="-450" rx="46.29" ry="18"/>
<text text-anchor="middle" x="2089.59" y="-446.3" font-family="Times,serif" font-size="14.00">[&#39;t_dat&#39;]</text>
</g>
<!-- 9_selector&#45;&gt;9 -->
<g id="edge16" class="edge">
<title>9_selector&#45;&gt;9</title>
<path fill="none" stroke="black" d="M2104.9,-432.76C2113.07,-424.1 2123.3,-413.25 2132.42,-403.57"/>
<polygon fill="black" stroke="black" points="2135.13,-405.8 2139.44,-396.12 2130.04,-401 2135.13,-405.8"/>
</g>
<!-- 10_selector -->
<g id="node24" class="node">
<title>10_selector</title>
<ellipse fill="none" stroke="black" cx="1029.59" cy="-522" rx="167.07" ry="18"/>
<text text-anchor="middle" x="1029.59" y="-518.3" font-family="Times,serif" font-size="14.00">[&#39;customer_id&#39;, &#39;article_id&#39;, &#39;t_dat&#39;]</text>
</g>
<!-- 10_selector&#45;&gt;10 -->
<g id="edge19" class="edge">
<title>10_selector&#45;&gt;10</title>
<path fill="none" stroke="black" d="M972.09,-505.03C927.98,-492.78 867.78,-476.05 826.08,-464.47"/>
<polygon fill="black" stroke="black" points="827,-461.09 816.43,-461.79 825.13,-467.84 827,-461.09"/>
</g>
<!-- 11_selector -->
<g id="node25" class="node">
<title>11_selector</title>
<ellipse fill="none" stroke="black" cx="333.59" cy="-450" rx="132.68" ry="18"/>
<text text-anchor="middle" x="333.59" y="-446.3" font-family="Times,serif" font-size="14.00">[&#39;customer_id&#39;, &#39;article_id&#39;]</text>
</g>
<!-- 11_selector&#45;&gt;11 -->
<g id="edge20" class="edge">
<title>11_selector&#45;&gt;11</title>
<path fill="none" stroke="black" d="M337.79,-431.7C339.68,-423.9 341.96,-414.51 344.07,-405.83"/>
<polygon fill="black" stroke="black" points="347.48,-406.65 346.43,-396.1 340.67,-405 347.48,-406.65"/>
</g>
<!-- 12&#45;&gt;15 -->
<g id="edge31" class="edge">
<title>12&#45;&gt;15</title>
<path fill="none" stroke="black" d="M1159.69,-222.41C1164.52,-220.16 1169.69,-217.89 1174.59,-216 1215.88,-200.06 1264.12,-185.69 1299.31,-175.94"/>
<polygon fill="black" stroke="black" points="1300.62,-179.21 1309.34,-173.2 1298.77,-172.46 1300.62,-179.21"/>
</g>
<!-- 14&#45;&gt;12 -->
<g id="edge21" class="edge">
<title>14&#45;&gt;12</title>
<path fill="none" stroke="black" d="M1226.84,-290.15C1209.18,-279.12 1185.03,-264.03 1166.46,-252.42"/>
<polygon fill="black" stroke="black" points="1168.18,-249.37 1157.84,-247.03 1164.47,-255.3 1168.18,-249.37"/>
</g>
<!-- 13&#45;&gt;12 -->
<g id="edge23" class="edge">
<title>13&#45;&gt;12</title>
<path fill="none" stroke="black" d="M1514.06,-303.08C1439.15,-299.11 1293.19,-287.17 1174.59,-252 1172.65,-251.43 1170.68,-250.76 1168.72,-250.03"/>
<polygon fill="black" stroke="black" points="1169.68,-246.64 1159.1,-246 1166.97,-253.09 1169.68,-246.64"/>
</g>
<!-- 12_selector -->
<g id="node29" class="node">
<title>12_selector</title>
<ellipse fill="none" stroke="black" cx="2007.59" cy="-306" rx="376.13" ry="18"/>
<text text-anchor="middle" x="2007.59" y="-302.3" font-family="Times,serif" font-size="14.00">[&#39;article_id_list&#39;, &#39;t_dat_list&#39;, &#39;t_dat&#39;, &#39;article_id_count&#39;, &#39;customer_id&#39;, &#39;article_id&#39;]</text>
</g>
<!-- 12_selector&#45;&gt;12 -->
<g id="edge26" class="edge">
<title>12_selector&#45;&gt;12</title>
<path fill="none" stroke="black" d="M1743.33,-293.16C1520.26,-282.35 1228.72,-265.96 1174.59,-252 1172.41,-251.44 1170.21,-250.75 1168.02,-249.97"/>
<polygon fill="black" stroke="black" points="1169.23,-246.68 1158.65,-246.1 1166.56,-253.15 1169.23,-246.68"/>
</g>
<!-- 13_selector -->
<g id="node30" class="node">
<title>13_selector</title>
<ellipse fill="none" stroke="black" cx="1758.59" cy="-378" rx="46.29" ry="18"/>
<text text-anchor="middle" x="1758.59" y="-374.3" font-family="Times,serif" font-size="14.00">[&#39;t_dat&#39;]</text>
</g>
<!-- 13_selector&#45;&gt;13 -->
<g id="edge28" class="edge">
<title>13_selector&#45;&gt;13</title>
<path fill="none" stroke="black" d="M1725.51,-365.13C1693.03,-353.47 1643.29,-335.61 1607.51,-322.77"/>
<polygon fill="black" stroke="black" points="1608.41,-319.37 1597.81,-319.29 1606.04,-325.96 1608.41,-319.37"/>
</g>
<!-- 14_selector -->
<g id="node31" class="node">
<title>14_selector</title>
<ellipse fill="none" stroke="black" cx="1250.59" cy="-378" rx="137.58" ry="18"/>
<text text-anchor="middle" x="1250.59" y="-374.3" font-family="Times,serif" font-size="14.00">[&#39;article_id_list&#39;, &#39;t_dat_list&#39;]</text>
</g>
<!-- 14_selector&#45;&gt;14 -->
<g id="edge30" class="edge">
<title>14_selector&#45;&gt;14</title>
<path fill="none" stroke="black" d="M1250.59,-359.7C1250.59,-351.98 1250.59,-342.71 1250.59,-334.11"/>
<polygon fill="black" stroke="black" points="1254.09,-334.1 1250.59,-324.1 1247.09,-334.1 1254.09,-334.1"/>
</g>
<!-- 15_selector -->
<g id="node32" class="node">
<title>15_selector</title>
<ellipse fill="none" stroke="black" cx="1559.59" cy="-234" rx="376.13" ry="18"/>
<text text-anchor="middle" x="1559.59" y="-230.3" font-family="Times,serif" font-size="14.00">[&#39;article_id_list&#39;, &#39;t_dat_list&#39;, &#39;t_dat&#39;, &#39;article_id_count&#39;, &#39;customer_id&#39;, &#39;article_id&#39;]</text>
</g>
<!-- 15_selector&#45;&gt;15 -->
<g id="edge32" class="edge">
<title>15_selector&#45;&gt;15</title>
<path fill="none" stroke="black" d="M1508.78,-216.14C1473.71,-204.51 1427.49,-189.18 1393.72,-177.97"/>
<polygon fill="black" stroke="black" points="1394.69,-174.61 1384.1,-174.78 1392.49,-181.25 1394.69,-174.61"/>
</g>
</g>
</svg>
